<svg height="30" viewBox="0 0 60 60" width="30" xmlns="http://www.w3.org/2000/svg"><g id="Page-1" fill="none" fill-rule="evenodd"><g id="070---Search-Folder" fill-rule="nonzero"><path id="Shape" d="m45 36.059v10.941c0 1.6568542-1.3431458 3-3 3h-22v-4.42c.0009983-.378673.1084169-.7494404.31-1.07l2.38-3.8c.2027496-.3163382.3103507-.6842646.31-1.06v-24.1c-.0006596-1.0957792-.5987072-2.1040261-1.56-2.63l-19.44-11.92h36c1.6568542 0 3 1.34314575 3 3v22.94c-.0009672.6951815.1818775 1.3782617.53 1.98l2.94 5.16c.3479522.6014448.5307909 1.2841576.53 1.979z" fill="#a4c2f7"/><path id="Shape" d="m44.47 34.079-2.94-5.16c-.3481225-.6017383-.5309672-1.2848185-.53-1.98v-22.939c0-1.65685425-1.3431458-3-3-3h-3c1.6568542 0 3 1.34314575 3 3v22.94c-.0009672.6951815.1818775 1.3782617.53 1.98l2.94 5.16c.3481225.6017383.5309672 1.2848185.53 1.98v10.94c0 1.6568542-1.3431458 3-3 3h3c1.6568542 0 3-1.3431458 3-3v-10.941c.0009672-.6951815-.1818775-1.3782617-.53-1.98z" fill="#7facfa"/><path id="Shape" d="m23.387 41.608c4.2916093 4.2918879 10.7460339 5.5759161 16.3535113 3.2533294 5.6074775-2.3225866 9.2636774-7.7943803 9.2636774-13.8638294s-3.6561999-11.5412428-9.2636774-13.8638294c-5.6074774-2.3225867-12.061902-1.0385585-16.3535113 3.2533294-5.8470804 5.8653701-5.8470804 15.3556299 0 21.221z" fill="#e8edfc"/><path id="Shape" d="m23.387 20.387c3.185381-3.1830685 7.6329301-4.7655779 12.113-4.31-7.6607208.7620637-13.4993111 7.2022445-13.5088584 14.9007699-.0095474 7.6985254 5.8130513 14.1531678 13.4718584 14.9342301-6.3064732.6293621-12.3272-2.7757467-15.037614-8.5047394-2.7104139-5.7289928-1.5246494-12.5435272 2.961614-17.0202606z" fill="#cad9fc"/><path id="Shape" d="m34 41.994c5.2480808-.0046071 9.7619979-3.7159623 10.7809984-8.864167 1.0190006-5.1482047-1.7407512-10.2992603-6.5913661-12.3027345s-10.440986-.3013124-13.3519916 4.0654278-2.3318042 10.1817321 1.3833593 13.8884737c2.0629274 2.0622941 4.8620329 3.2184229 7.779 3.213z" fill="#a4c2f7"/><path id="Shape" d="m26.213 23.218c2.0625562-2.0683514 4.8660178-3.22689 7.787-3.218.501975.0038242 1.0031174.0415769 1.5.113-5.4548609.7360278-9.5224436 5.3962196-9.5143539 10.9005069.0080897 5.5042872 4.0893531 10.1525026 9.5463539 10.8724931-.5075821.0711245-1.0194596.1072099-1.532.108-4.4491896.0014771-8.4611515-2.6773801-10.1650394-6.7873748s-.7641336-8.8416938 2.3810394-11.9886252z" fill="#7facfa"/><path id="Shape" d="m42.267 43.517 3.75 3.74 4.241-4.24-3.741-3.75c-1.1140235 1.6900344-2.5599656 3.1359765-4.25 4.25z" fill="#a4c2f7"/><path id="Shape" d="m46.017 48.678 6.361 6.36c1.1756032 1.1687712 3.0743968 1.1687712 4.25 0l1.41-1.411c1.1687712-1.1756032 1.1687712-3.0743968 0-4.25l-6.36-6.36c-.3930079-.3899779-1.0269921-.3899779-1.42 0l-4.241 4.24c-.3890091.3937961-.3890091 1.0272039 0 1.421z" fill="#e8edfc"/><path id="Shape" d="m46.017 47.257 4.241-4.24c.3930079-.3899779 1.0269921-.3899779 1.42 0l.789.79-3.45 3.45c-.3890091.3937961-.3890091 1.0272039 0 1.421l6.361 6.36c.1863886.1803601.3954818.3356672.622.462-1.1747991.6817445-2.660723.4915987-3.626-.464l-6.361-6.36c-.3865866-.3946488-.3848054-1.0265369.004-1.419z" fill="#cad9fc"/><path id="Shape" d="m23 15.549v24.1c.0003507.3757354-.1072504.7436618-.31 1.06l-2.38 3.8c-.2015831.3205596-.3090017.691327-.31 1.07v11.421c-.0003672.6920863-.3585153 1.3347954-.9468854 1.6992185-.5883702.364423-1.3233301.3987601-1.9431146.0907815l-15.11-8.79v-49l19.44 11.92c.9609788.5258017 1.5589753 1.5335793 1.56 2.629z" fill="#e8edfc"/><path id="Shape" d="m21.44 12.919-19.44-11.919v1.84l16.44 10.08c.9609788.5258017 1.5589753 1.5335793 1.56 2.629v24.1c.0003507.3757354-.1072504.7436618-.31 1.06l-2.38 3.8c-.2015831.3205596-.3090017.691327-.31 1.07v11.421c.0025454.5220015-.2020879 1.0236948-.569 1.395l.679.4c.6205814.3083761 1.3565708.2735309 1.9452417-.0920969.588671-.3656277.9461237-1.0099274.9447583-1.7029031v-11.421c.0009983-.378673.1084169-.7494404.31-1.07l2.38-3.8c.2027496-.3163382.3103507-.6842646.31-1.06v-24.1c-.0006596-1.0957792-.5987072-2.1040261-1.56-2.63z" fill="#cad9fc"/><path id="Shape" d="m19.431 58.394-14.431-8.394v-49h-3v49l15.11 8.79c.7773365.3876247 1.7161682.2274449 2.321-.396z" fill="#fff"/><path id="Rectangle-path" d="m1 42h2v8h-2z" fill="#fff"/><g fill="#428dff"><path id="Shape" d="m2 43c.55228475 0 1-.4477153 1-1v-39.214l17.963 11.014c.6380308.3505171 1.0352181 1.0200286 1.037 1.748v24.1c.000265.1885374-.0527745.3733089-.153.533l-.089.141-.011.018-2.288 3.64c-.3004071.4795623-.4594948 1.0341164-.459 1.6v11.42c.0029256.3476109-.1775933.6710247-.475.851-.273174.1790598-.6186484.2069389-.917.074l-15.108-8.789c-.30988662-.2047341-.70771483-.2208552-1.03315098-.0418662-.32543615.1789891-.5248632.523599-.51790761.8949444.00695558.3713454.21914786.7082454.55105859.8749218l15.161 8.817c.9293794.4635481 2.0324014.4134357 2.9159191-.132476.8835176-.5459117 1.4218349-1.509957 1.4230809-2.548524v-6h21c1.2988706-.0022584 2.5153951-.6364478 3.261-1.7.0412176.0568029.0856222.1112236.133.163l6.364 6.363c1.5619994 1.5615278 4.0940006 1.5615278 5.656 0l1.414-1.414c1.5615278-1.5619994 1.5615278-4.0940006 0-5.656l-6.363-6.364c-.5044571-.5017258-1.2381209-.6964802-1.925-.511l-2.686-2.681c2.1858353-3.6864202 2.797-8.097117 1.695886-12.2389907-1.1011139-4.1418737-3.8219476-7.6667613-7.549886-9.7810093v-13.18c0-2.209139-1.790861-4-4-4h-36c-.55228475 0-1 .44771525-1 1v41c0 .5522847.44771525 1 1 1zm40 6h-21.0000001l.0000001-3.424c-.0000766-.1881975.0529555-.3725967.153-.532l1.647-2.615c5.1697572 5.110739 13.1294169 6.107748 19.4 2.43l1.8 1.8v.341c0 1.1045695-.8954305 2-2 2zm15.414 1.172c.7807639.7809997.7807639 2.0470003 0 2.828l-1.414 1.414c-.791167.755814-2.036833.755814-2.828 0l-6.364-6.364 4.243-4.242zm-11.314-4.243-.388-.388-.014-.013-1.816-1.816c.5329083-.4051961 1.0399017-.8433881 1.518-1.312.121-.122.231-.242.318-.338.3542818-.3705485.68811-.760126 1-1.167l2.21 2.211zm-.336-7.129c-.4398393.6745602-.9420433 1.3063328-1.5 1.887-.091.1-.182.2-.278.294-2.6257938 2.6276541-6.1882511 4.1040114-9.903 4.1040114s-7.2772062-1.4763573-9.903-4.1040114c-.12-.119-.227-.247-.342-.371.1056674-.3091064.160381-.6333354.162-.96v-1.985c2.0031586 2.9846573 5.2346508 4.9186897 8.8116299 5.2737176 3.576979.355028 7.1255977-.9060542 9.6763701-3.4387176 3.1635268-3.156521 4.3016211-7.8143191 2.9501896-12.0740327-1.3514314-4.2597136-4.9665541-7.409512-9.3711896-8.1649673-.3575014-.0734897-.7266459.053626-.9631039.3316468s-.3026685.6627834-.172744 1.0038517c.1299244.3410683.4353453.5842641.7968479.6345015 4.8930303.8610471 8.4160151 5.1778342 8.2787715 10.1441519-.1372437 4.9663177-3.8932575 9.0819504-8.8263736 9.6714531-4.933116.5895026-9.5531481-2.5252006-10.8567568-7.3193379-1.3036087-4.7941372 1.1029976-9.8195047 5.6553589-11.8092671.3276126-.1429062.5540995-.4497362.5941453-.8049102.0400459-.3551739-.1124333-.7047323-.4-.917s-.6665328-.2549961-.9941453-.1120898c-1.3687937.5961665-2.6133853 1.444212-3.669 2.5-.5625025.5604766-1.0682895 1.1751251-1.51 1.835v-3.054c.06-.062.117-.128.177-.188 5.0775128-5.1105349 13.2044934-5.5335012 18.7850896-.9776644 5.5805963 4.5558367 6.7927849 12.6030295 2.8019104 18.6006644zm-5.764-34.8v12.214c-5.3809939-2.1563659-11.5085826-1.2199938-16 2.445v-3.111c.0038951-1.4434527-.7740508-2.7758715-2.033-3.482l-16.422-10.066h32.455c1.1045695 0 2 .8954305 2 2z"/><circle id="Oval" cx="2" cy="46" r="1"/><path id="Shape" d="m6 12c.55228475 0 1-.4477153 1-1v-2c0-.55228475-.44771525-1-1-1s-1 .44771525-1 1v2c0 .5522847.44771525 1 1 1z"/><path id="Shape" d="m5 34c0 .5522847.44771525 1 1 1s1-.4477153 1-1v-18c0-.5522847-.44771525-1-1-1s-1 .4477153-1 1z"/></g></g></g></svg>